<svg width="0" height="0" class="hidden">

	<symbol fill="none" xmlns="http://www.w3.org/2000/svg" viewBox="0 0 44 44" id="message"><path d="M22 43.25a21.25 21.25 0 1 0 0-42.5 21.25 21.25 0 0 0 0 42.5Z" stroke="#CBBCB0" stroke-width="1.5"/><path d="M33.18 12H10.34A1.34 1.34 0 0 0 9 13.34v16.12a1.34 1.34 0 0 0 1.34 1.34h2.69l4.03 4.03V30.8h16.12a1.34 1.34 0 0 0 1.34-1.34V13.34A1.34 1.34 0 0 0 33.18 12Z" stroke="#CBBCB0" stroke-width="1.5" stroke-miterlimit="10"/><path d="M14.05 19.7h15.42" stroke="#CBBCB0" stroke-width="1.5" stroke-miterlimit="10"/><path d="M16.62 23.13H26.9" stroke="#CBBCB0" stroke-width="1.5" stroke-miterlimit="10"/></symbol>

	<symbol fill="none" xmlns="http://www.w3.org/2000/svg" viewBox="0 0 44 44" id="message-black"><path d="M22 43.25a21.25 21.25 0 1 0 0-42.5 21.25 21.25 0 0 0 0 42.5Z" stroke="#000" stroke-width="1.5"/><path d="M33.18 12H10.34A1.34 1.34 0 0 0 9 13.34v16.12a1.34 1.34 0 0 0 1.34 1.34h2.69l4.03 4.03V30.8h16.12a1.34 1.34 0 0 0 1.34-1.34V13.34A1.34 1.34 0 0 0 33.18 12Z" stroke="#000" stroke-width="1.5" stroke-miterlimit="10"/><path d="M14.05 19.7h15.42" stroke="#000" stroke-width="1.5" stroke-miterlimit="10"/><path d="M16.62 23.13H26.9" stroke="#000" stroke-width="1.5" stroke-miterlimit="10"/></symbol>

	<symbol fill="none" xmlns="http://www.w3.org/2000/svg" viewBox="0 0 44 44" id="phone"><path d="M22 44a22 22 0 1 0 0-44 22 22 0 0 0 0 44Z" fill="#CBBCB0"/><path d="m27.14 32.65-.08.03c-1.47.3-3.35-.34-5.62-1.9a30.13 30.13 0 0 1-4.28-3.65 30.12 30.12 0 0 1-3.51-4.41c-1.47-2.32-2.04-4.23-1.7-5.68.3-.82.8-1.55 1.44-2.12a2.11 2.11 0 0 1 1.51-.76 1.81 1.81 0 0 1 1.3.65 16.16 16.16 0 0 1 2.74 3.67 1.6 1.6 0 0 1-.78 2.19c-.31.2-.4.27-.41.4-.02.64 1.14 2.2 2.3 3.4 1.3 1.33 2.6 2.27 3.17 2.27.14 0 .21-.08.42-.4a1.6 1.6 0 0 1 2.22-.7c1.32.78 2.52 1.75 3.57 2.87a1.82 1.82 0 0 1 .6 1.32 2.11 2.11 0 0 1-.8 1.48c-.59.6-1.3 1.06-2.09 1.34Z" fill="#000"/><path d="M21.13 18.17a5.17 5.17 0 0 1 5.11 5.3" stroke="#000" stroke-width="1.5" stroke-miterlimit="10"/><path d="M22.8 15.12a6.74 6.74 0 0 1 6.6 6.85" stroke="#000" stroke-width="1.5" stroke-miterlimit="10"/><path d="M24.46 12.06a8.26 8.26 0 0 1 8.11 8.4" stroke="#000" stroke-width="1.5" stroke-miterlimit="10"/></symbol>

	<symbol fill="none" xmlns="http://www.w3.org/2000/svg" viewBox="0 0 44 44" id="phone-black"><path d="M22 44a22 22 0 1 0 0-44 22 22 0 0 0 0 44Z" fill="#000"/><path d="m27.14 32.65-.08.03c-1.47.3-3.35-.34-5.62-1.9a30.13 30.13 0 0 1-4.28-3.65 30.12 30.12 0 0 1-3.51-4.41c-1.47-2.32-2.04-4.23-1.7-5.68.3-.82.8-1.55 1.44-2.12a2.11 2.11 0 0 1 1.51-.76 1.81 1.81 0 0 1 1.3.65 16.16 16.16 0 0 1 2.74 3.67 1.6 1.6 0 0 1-.78 2.19c-.31.2-.4.27-.41.4-.02.64 1.14 2.2 2.3 3.4 1.3 1.33 2.6 2.27 3.17 2.27.14 0 .21-.08.42-.4a1.6 1.6 0 0 1 2.22-.7c1.32.78 2.52 1.75 3.57 2.87a1.82 1.82 0 0 1 .6 1.32 2.11 2.11 0 0 1-.8 1.48c-.59.6-1.3 1.06-2.09 1.34Z" fill="#CBBCB0"/><path d="M21.13 18.17a5.17 5.17 0 0 1 5.11 5.3" stroke="#CBBCB0" stroke-width="1.5" stroke-miterlimit="10"/><path d="M22.8 15.12a6.74 6.74 0 0 1 6.6 6.85" stroke="#CBBCB0" stroke-width="1.5" stroke-miterlimit="10"/><path d="M24.46 12.06a8.26 8.26 0 0 1 8.11 8.4" stroke="#CBBCB0" stroke-width="1.5" stroke-miterlimit="10"/></symbol>

</svg>