<svg width="0" height="0" class="hidden">

	<symbol xmlns="http://www.w3.org/2000/svg" viewBox="0 0 42 32" id="chat"><path d="M13.3 22.3a6.24 6.24 0 0 1-6.23-6.23V8.2H3.52A3.52 3.52 0 0 0 0 11.73v12.54a3.51 3.51 0 0 0 1.79 3.06v4.2l7.22-3.73h19.13a3.52 3.52 0 0 0 3.52-3.52V22.3H13.3Z"/><path d="M37.93 0H13.3A3.52 3.52 0 0 0 9.8 3.52v12.54a3.52 3.52 0 0 0 3.51 3.52h19.14l7.22 3.74v-4.2a3.51 3.51 0 0 0 1.79-3.05V3.52A3.52 3.52 0 0 0 37.93 0ZM20.56 9.19a1.63 1.63 0 1 1 0-3.25 1.63 1.63 0 0 1 0 3.25Zm5.06 0a1.63 1.63 0 1 1 0-3.25 1.63 1.63 0 0 1 0 3.25Zm5.06 0a1.63 1.63 0 1 1 0-3.25 1.63 1.63 0 0 1 0 3.25Z"/></symbol>

	<symbol xmlns="http://www.w3.org/2000/svg" viewBox="0 0 28 28" id="phone"><path d="M25.75 18.38c-1.7 0-3.38-.27-4.99-.8a2.28 2.28 0 0 0-2.22.47l-3.15 2.37a17.4 17.4 0 0 1-7.82-7.81l2.3-3.07a2.26 2.26 0 0 0 .56-2.3c-.53-1.6-.8-3.3-.8-5A2.25 2.25 0 0 0 7.4 0H2.25A2.25 2.25 0 0 0 0 2.25 25.78 25.78 0 0 0 25.75 28 2.25 2.25 0 0 0 28 25.75v-5.13a2.25 2.25 0 0 0-2.25-2.24Z"/></symbol>

</svg>