<svg xmlns="http://www.w3.org/2000/svg" xmlns:xlink="http://www.w3.org/1999/xlink" width="165.002" height="61.723" viewBox="0 0 165.002 61.723"><defs><clipPath id="a"><path d="M0,14.693H165V-47.03H0Z" transform="translate(0 47.03)" fill="#a2cf44"/></clipPath></defs><g clip-path="url(#a)"><g transform="translate(0 1.591)"><path d="M39.279,10.451,34.823-14.533H22.664v6.746h4.456l.709,4.372C28.66,1.5,27.495,3.33,22.039,3.33H20.831v7.121h1.207c4.54,0,6.372-2,7.33-5.205h.249l1.041,5.205ZM31.357-21.267h2.837v-6.006c0-3.324-1.1-4.437-3.743-4.437H24.865v10.443h2.855v-8.25h1.915c1.306,0,1.723.521,1.723,2.28ZM21.219-25.706v-6H11.959v2.193h6.423v3.845c0,1.881-.714,2.211-1.759,2.211h-.47v2.193h.923c2.8,0,4.142-1.2,4.142-4.439M5.756-21.267,9.306-31.71H3.632v-1.742H.917v3.935H5.651l-2.889,8.25Zm6.239,2.61h2.855v-8.581H11.995Zm0-8.581-4.628,12.7H-1.544v6.746h6.2c2.957,0,3.873,1.416,3.873,5.121V10.451h9.285V-3.541c0-7.662-2.54-10.993-10.451-10.993m-9.052-6.734-2.437-3.725a2.953,2.953,0,0,0,2.315-3.046V-31.71H-4.644v3.55c0,.731-.209,1.114-.713,1.287L-8.525-31.71h-2.89l2.106,3.219a2.862,2.862,0,0,0-2.28,3.133v4.091h2.819v-4.108c0-.731.157-1.131.644-1.306l3.533,5.414Zm-15.829-4.247h2.855v-6.2h-2.855Zm.745,29.22h-2.248v6.746h6.372c5.663,0,7.287-1.79,7.287-8V-14.533H-17.434v6.746h2.79V.957c0,2.041-.417,2.748-2.125,2.748M-17.7,21.524l-1.99-3.037H-21.5l1.322,2.021a1.8,1.8,0,0,0-1.431,1.966v2.567h1.769V22.464c0-.459.1-.71.4-.82l2.219,3.4H-15.4L-16.923,22.7a1.853,1.853,0,0,0,1.452-1.912v-2.3h-1.78v2.228c0,.458-.131.7-.448.808m-7,.853h1.79v-3.89H-24.7Zm-7.5-11.926h9.285V-14.533H-32.2Zm-1.822,14.59h1.79V18.487h-1.79Zm-3.437,0h1.791V21.272c0-2.043-.765-2.785-2.643-2.785h-3.649v1.375h.776v3.8h-1.159v1.375h2.861V19.863h.777c.919,0,1.246.4,1.246,1.574Zm-8.691-14.59h9.285V-3.915c0-7.662-2.873-10.619-10.993-10.619H-62.846v6.746h2.624V3.705H-64.3v6.746h12.951V-7.788h1.707c2.582,0,3.5,1,3.5,4.331ZM-64.017,23.666h-.294l-.58-5.179h-1.781l.755,6.554h1.9c2.228,0,3.484-.808,3.484-3.441V18.487h-3.2v1.375h1.42V21.6c0,1.6-.459,2.066-1.7,2.066m-3.777-1.323V21.184c0-1.988-.786-2.7-2.6-2.7H-73.2v3.528h1.693V19.863h.755c.907,0,1.18.427,1.18,1.508v.787c0,1.081-.273,1.508-1.18,1.508H-73.2v1.375h2.809c1.812,0,2.6-.71,2.6-2.7m-8.778.034h1.79v-3.89h-1.79Zm-7.284,2.664h5.834V20.726c0-1.595-.644-2.239-2.217-2.239h-3.617Zm1.736-5.179h1.378c.688,0,.973.316.973,1.169v2.634h-2.351Zm-11.79,5.179h5.626V23.666h-.81V18.487h-4.817v1.375h3.026v3.8h-3.026Zm-1.122,0L-96.558,22.7a1.853,1.853,0,0,0,1.452-1.912v-2.3h-1.78v2.228c0,.458-.131.7-.449.808l-1.99-3.037h-1.812l1.322,2.021a1.8,1.8,0,0,0-1.431,1.966v2.567h1.769V22.464c0-.459.1-.71.4-.82l2.219,3.4Zm-9.543,0h1.78V18.487h-5.67v1.375h3.89Zm-10.528,0h5.625V23.666h-.808V18.487H-115.1v1.375h3.026v3.8H-115.1Zm-3.263,0h1.78V18.487h-5.67v1.375h3.89Zm-5.743-2.545.218-2.021V17.394h-1.833v3.082l.207,2.021Zm.185.722h-1.769v1.823h1.769Zm3.481-1.924h-1.79V25.04h1.79Zm13.791,0h-1.79V25.04h1.79Zm49.545-2.807H-58.9v6.554h1.79Zm7.424,0h-5.811v1.375h4.032v2.415c0,1.181-.448,1.389-1.1,1.389h-.3v1.375h.579c1.76,0,2.6-.753,2.6-2.785Zm-4,2.807h-1.79v5.386h1.79Zm8.667,1.715-.3,3.572h.972l.786-2.316V23.01Zm16.2-4.523h-1.945v1.375h1.508c1.1,0,1.377.513,1.377,1.694v.415c0,1.181-.273,1.694-1.377,1.694h-1.508v1.375h1.945c2.02,0,2.73-.8,2.73-2.971v-.612c0-2.175-.71-2.971-2.73-2.971m19.357,0h-4.818v1.375h3.026v3.8h-3.026v1.375h5.626V23.666h-.808Zm8.852,0H-4.22v6.554H1.614V20.726c0-1.595-.644-2.239-2.217-2.239m-.5,1.375c.688,0,.973.316.973,1.169v2.634H-2.484v-3.8Zm5.96-1.375H3.064v3.89h1.79Zm2.39,5.528-1.29.383.339,1.344,2.9-.82c1.79-.5,2.675-1.3,2.675-3.256V18.487h-1.79v3.135c0,1.323-.262,1.639-1.18,1.912L7.878,18.487H6.085Zm7.926-5.528H13.38v3.89h1.79Zm7.315,0H16.674v1.375h4.032v2.415c0,1.181-.448,1.389-1.1,1.389h-.3v1.375h.58c1.759,0,2.6-.753,2.6-2.785Zm-4,2.807H16.7v5.386h1.79Zm8.476,1.278h1.681V18.486H26.962Zm-1.387-4.086H23.837l.732,6.554h3.6c2.306,0,3.278-.873,3.278-3.068V18.487H29.738v3.3c0,1.41-.459,1.879-1.891,1.879H26.131Zm8.081,1.375-.917,5.179h1.8l.874-5.179h.339c.995,0,1.278.525,1.278,1.77v2.033h-1.42v1.375h3.212V21.59c0-2.208-.776-3.1-2.742-3.1H32.824v1.375Z" transform="translate(125.723 33.452)" fill="#570404"/></g><g transform="translate(26.76 12.502)"><path d="M2.626,8h0A12.887,12.887,0,0,1-.9,7.513,14.981,14.981,0,0,1-6.037,4.876l-.134-.109c-.181-.159-.356-.325-.529-.493l-1.7-1.667,1.891-1.453A11.322,11.322,0,0,0-2.23-7.617a11.158,11.158,0,0,0-2.021-6.206l-1.016-1.505,1.337-1.228q.463-.425.927-.845c.542-.492,1.083-.983,1.613-1.484.319-.332.633-.668.948-1a25.1,25.1,0,0,1,5.576-4.876l.07-.039a6.982,6.982,0,0,1,3.286-.807A8.065,8.065,0,0,1,13.284-24a7.661,7.661,0,0,1,3.021,6.356,39.727,39.727,0,0,1-.361,4.5c-.142,1.189-.277,2.312-.319,3.431A59.316,59.316,0,0,1,15.1-2.694l-.014.1a12.437,12.437,0,0,1-4.74,8.058A12.887,12.887,0,0,1,2.626,8M-1.932,2.54a8.053,8.053,0,0,0,2.1.882l.073.02a8.6,8.6,0,0,0,2.389.333A8.619,8.619,0,0,0,7.809,2.082l.041-.03a8.409,8.409,0,0,0,3.059-5.331,55.2,55.2,0,0,0,.482-6.493V-9.83c.047-1.3.2-2.575.346-3.807a35.947,35.947,0,0,0,.331-4.04,3.54,3.54,0,0,0-1.277-2.9l-.039-.029A3.506,3.506,0,0,0,7.24-21.1,21.772,21.772,0,0,0,2.656-17.01c-.34.364-.679.727-1.022,1.084l-.073.073c-.449.424-.9.84-1.36,1.256a15.309,15.309,0,0,1,1.685,7A15.289,15.289,0,0,1-1.932,2.54" transform="translate(8.405 25.613)" fill="#fff"/></g><g transform="translate(6.236 15.119)"><path d="M3.674,7.333A15.436,15.436,0,0,1-11.761-8.07a15.436,15.436,0,0,1,15.435-15.4,15.433,15.433,0,0,1,12.813,6.814l.881,1.585-1.2,1.148c-.875.8-1.8,1.679-2.647,2.624l-.045.047a9.063,9.063,0,0,0-2.494,4.5A8.518,8.518,0,0,0,13.5.785l1.74,1.281-1.9,1.87a15.494,15.494,0,0,1-9.659,3.4m0-26.577A11.2,11.2,0,0,0-7.524-8.07,11.2,11.2,0,0,0,3.674,3.106a11.079,11.079,0,0,0,5.2-1.277,12.372,12.372,0,0,1-2.049-9.4,13.151,13.151,0,0,1,3.555-6.566c.484-.539.99-1.058,1.488-1.546a11.2,11.2,0,0,0-8.195-3.558" transform="translate(11.761 23.471)" fill="#ff8625"/></g><g transform="translate(24.589 20.021)"><path d="M1.261,5.606-.117,4.416A12.645,12.645,0,0,1-3.809-6.949,13.149,13.149,0,0,1-.253-13.516C.71-14.589,1.76-15.579,2.66-16.407l1.672-1.537a18.26,18.26,0,0,1,1.521,1.911A15.3,15.3,0,0,1,8.475-7.445,15.322,15.322,0,0,1,2.7,4.56ZM3.529-11.369q-.329.341-.644.693l-.045.049a9.052,9.052,0,0,0-2.494,4.5A8.2,8.2,0,0,0,1.564-.2,11.1,11.1,0,0,0,4.239-7.445a11.129,11.129,0,0,0-.71-3.924" transform="translate(4.036 17.944)" fill="#449c3b"/></g><g transform="translate(32.601 0.001)"><path d="M.5,1.09A10.282,10.282,0,0,1,8.584-3.488,10.24,10.24,0,0,1,6.958,5.645a10.279,10.279,0,0,1-8.086,4.578A10.236,10.236,0,0,1,.5,1.09" transform="translate(1.595 3.488)" fill="#449c3b"/></g><g transform="translate(20.098 5.225)"><path d="M1.761.448a8.372,8.372,0,0,0-7.4-1.578,8.334,8.334,0,0,0,3.5,6.688,8.373,8.373,0,0,0,7.4,1.579A8.335,8.335,0,0,0,1.761.448" transform="translate(5.638 1.433)" fill="#fff"/></g></g></svg>